Coordinates
version=1
nRows=10
nColumns=38
inDegrees=yes

Units are S.I. units (second, meters, Newtons, ...)
If the header above contains a line with 'inDegrees', this indicates whether rotational values are in degrees (yes) or radians (no).

endheader
time	pelvis_tilt	pelvis_list	pelvis_rotation	pelvis_tx	pelvis_ty	pelvis_tz	hip_flexion_r	hip_adduction_r	hip_rotation_r	knee_angle_r	knee_angle_r_beta	ankle_angle_r	subtalar_angle_r	mtp_angle_r	hip_flexion_l	hip_adduction_l	hip_rotation_l	knee_angle_l	knee_angle_l_beta	ankle_angle_l	subtalar_angle_l	mtp_angle_l	lumbar_extension	lumbar_bending	lumbar_rotation	arm_flex_r	arm_add_r	arm_rot_r	elbow_flex_r	pro_sup_r	radius_hand_r_lock	arm_flex_l	arm_add_l	arm_rot_l	elbow_flex_l	pro_sup_l	radius_hand_l_lock
      2.65833333	    -82.48307882	      1.59928060	   -183.14474276	      0.93471558	      0.39259677	     -0.61388536	     15.21181283	     -2.58448865	    -12.42195533	      9.95649159	      0.17377356	     34.37942448	      4.28481615	     -7.49999987	     14.33191050	     -8.10957147	    -14.48405875	     14.17846082	      0.24746082	     35.08597375	      0.01022246	     -7.49999987	    -14.67522358	      3.34012777	     -2.79266233	    -23.77197082	    -15.12229789	    -18.83696215	     15.38736340	    100.67132040	      0.00000000	    -30.00956995	    -13.13090773	    -26.21611598	     26.34411494	    110.49889836	      0.00000000
      2.66666667	    -82.78962889	      1.88188605	   -182.98872330	      0.93508073	      0.39349162	     -0.61328281	     14.74352884	     -2.30847019	    -12.69252182	      9.92575958	      0.17323719	     34.35098511	      4.20649943	     -7.49999987	     14.01079947	     -8.35122347	    -14.21874879	     14.28511011	      0.24932221	     35.15710258	      0.02781037	     -7.49999987	    -14.78167329	      3.72597617	     -2.80546101	    -23.71062695	    -14.98867814	    -18.84353179	     15.54911626	     97.16022419	      0.00000000	    -29.61737477	    -13.03112826	    -25.28131199	     26.19366467	    108.14724762	      0.00000000
      2.67500000	    -83.09055995	      1.76582228	   -183.27312685	      0.93540944	      0.39431522	     -0.61340318	     14.41528986	     -2.35470112	    -12.25685249	      9.88625351	      0.17254767	     34.42105793	      3.92385613	     -7.49999987	     13.54729583	     -8.23881682	    -14.52482073	     14.25789880	      0.24884728	     35.17565118	      0.17675168	     -7.49999987	    -14.88035678	      3.56855743	     -2.61203600	    -23.51834280	    -14.88691605	    -18.44128301	     15.60463369	     95.05272514	      0.00000000	    -29.17220834	    -13.13833071	    -24.03057358	     26.09407316	    106.25771657	      0.00000000
      2.68333333	    -83.11041613	      1.69499531	   -183.14341674	      0.93498378	      0.39481710	     -0.61292278	     14.36948834	     -2.50289743	    -12.39462927	      9.68619312	      0.16905596	     34.69648195	      4.39011005	     -7.49999987	     13.69396530	     -8.10380304	    -14.09565198	     14.51601427	      0.25335224	     35.21111523	     -0.10084388	     -7.49999987	    -14.64029099	      3.53673628	     -2.89251067	    -23.17909527	    -14.87958680	    -18.24722965	     15.09441915	     99.67432557	      0.00000000	    -28.92068595	    -12.97264452	    -24.80466822	     26.02969725	    110.93470252	      0.00000000
      2.69166667	    -83.36688503	      1.71112178	   -183.19148113	      0.93531998	      0.39569509	     -0.61261315	     14.10769866	     -2.53842168	    -12.30142027	      9.95781540	      0.17379666	     34.79492235	      4.31475321	     -7.49999987	     13.37238760	     -8.08662922	    -14.03105398	     14.53414564	      0.25366870	     35.34352345	     -0.12812705	     -7.49999987	    -14.66483570	      3.59647452	     -2.77597829	    -22.95888476	    -14.72259494	    -17.93657524	     14.90036001	     97.94524559	      0.00000000	    -28.43529059	    -13.12921037	    -22.89306576	     25.58944502	    109.73548704	      0.00000000
      2.70000000	    -83.53053193	      1.69593788	   -183.16892162	      0.93535940	      0.39642075	     -0.61224497	     14.02469441	     -2.63487105	    -12.43274892	     10.24402509	      0.17879197	     34.96643974	      4.36885865	     -7.49999987	     13.24814500	     -8.05136829	    -13.96520460	     14.74000563	      0.25726163	     35.47621200	     -0.24133864	     -7.49999987	    -14.58628319	      3.62212342	     -2.79614824	    -22.65972511	    -14.68132061	    -16.98775905	     14.54161311	     98.26083415	      0.00000000	    -28.00020456	    -13.10350579	    -22.15498334	     25.32637743	    110.00562125	      0.00000000
      2.70833333	    -83.72184446	      1.72477246	   -183.10037909	      0.93530991	      0.39722416	     -0.61179332	     13.68297601	     -2.62354464	    -12.32456075	      9.91174337	      0.17299256	     34.97970070	      4.47867169	     -7.49999987	     13.11006065	     -8.07464120	    -13.98044815	     15.00662030	      0.26191493	     35.61454857	     -0.17696144	     -7.49999987	    -14.54867593	      3.70004241	     -2.87806375	    -22.31607200	    -14.64297054	    -15.99964286	     14.20566428	     97.98758477	      0.00000000	    -27.61930346	    -13.01123402	    -21.52771082	     25.14432424	    109.76335057	      0.00000000
      2.71666667	    -84.02772235	      1.82982735	   -183.12311292	      0.93553037	      0.39807564	     -0.61129474	     13.36888295	     -2.59678497	    -12.36397268	     10.20098233	      0.17804073	     34.98322001	      4.42453469	     -7.49999987	     12.76825196	     -8.17650532	    -14.19308461	     15.14934086	      0.26440588	     35.72706015	      0.07801794	     -7.49999987	    -14.65709530	      3.85144587	     -2.77214367	    -21.99271591	    -14.55115350	    -15.65021982	     14.02326275	     97.34917674	      0.00000000	    -27.07502938	    -12.92733665	    -20.97354634	     25.06053878	    109.72226698	      0.00000000
      2.72500000	    -84.24388898	      1.91375885	   -183.17472456	      0.93551117	      0.39870126	     -0.61096235	     13.10683955	     -2.50615518	    -12.22598162	     10.08930068	      0.17609152	     35.01521941	      4.44422032	     -7.49999987	     12.51929074	     -8.26124978	    -14.33277005	     15.24091243	      0.26600410	     35.78960799	      0.18304499	     -7.49999987	    -14.67933164	      3.98539526	     -2.72467187	    -21.50423985	    -14.55340222	    -14.42604574	     13.61130985	     96.77810279	      0.00000000	    -26.52221590	    -12.80051779	    -20.28785900	     24.77757423	    109.20456791	      0.00000000
      2.73333333	    -84.44327591	      2.05273854	   -183.17506458	      0.93564785	      0.39904571	     -0.61050931	     13.01082264	     -2.45737916	    -12.15017978	     10.62521501	      0.18544499	     34.95704594	      3.96540596	     -7.49999987	     12.34315133	     -8.38487813	    -14.24696623	     15.37041389	      0.26826433	     35.77717544	      0.20720287	     -7.49999987	    -14.71819365	      4.19049259	     -2.70985508	    -20.90698525	    -14.58921443	    -12.88074334	     13.10185054	     96.59410160	      0.00000000	    -26.04125375	    -12.43366952	    -20.17607647	     24.73412735	    109.27496748	      0.00000000
